<svg id="Layer_1" data-name="Layer 1" xmlns="http://www.w3.org/2000/svg" viewBox="0 0 835.35 977.27"><defs><style>.cls-1{fill:#2a2a2a;}.cls-2{fill:#b300ff;}.cls-3{fill:#fff;}</style></defs><path class="cls-1" d="M120.29,1007.11,455,72.21a14.3,14.3,0,0,1,26.35-1.37L746.72,623.28,657.1,843.89l-51.19-124.3a5.4,5.4,0,0,0-7.88-2.52L128.26,1013.5A5.4,5.4,0,0,1,120.29,1007.11Z" transform="translate(-119.95 -62.73)"/><path class="cls-2" d="M512.64,771l90.83-57.32,35,85c6.82,16.56,30.28,16.5,37-.08L845.29,380.65a20,20,0,0,1,18.62-12.47l71.46.31a20,20,0,0,1,18.43,27.56L695.92,1027.56A20,20,0,0,1,677.4,1040h-42a20,20,0,0,1-18.53-12.47Z" transform="translate(-119.95 -62.73)"/><path class="cls-3" d="M512.64,771,360.33,396.41a20.34,20.34,0,0,1,18.84-28h71.35a19.84,19.84,0,0,1,18.38,12.4L603.47,713.64Z" transform="translate(-119.95 -62.73)"/></svg>