<svg id="Layer_1" data-name="Layer 1" xmlns="http://www.w3.org/2000/svg" viewBox="0 0 1097 538.48"><defs><style>.cls-1{fill:#fff;}.cls-2{fill:none;stroke:#fff;stroke-linecap:round;stroke-miterlimit:10;stroke-width:3px;}</style></defs><path class="cls-1" d="M599.17,721.7h-34a3,3,0,0,1-3-3V681.15a3,3,0,0,1,3-3h34a3,3,0,0,1,3,3V718.7A3,3,0,0,1,599.17,721.7Z" transform="translate(-562.17 -215.31)"/><polyline class="cls-2" points="20 440.61 20 458.46 20 536.98"/><path class="cls-1" d="M644.18,714h-34a3,3,0,0,1-3-3V681.25a3,3,0,0,1,3-3h34a3,3,0,0,1,3,3V711A3,3,0,0,1,644.18,714Z" transform="translate(-562.17 -215.31)"/><polyline class="cls-2" points="65 465.94 65 475.67 65 518.43"/><path class="cls-1" d="M690.09,714H656.25a3.08,3.08,0,0,1-3.08-3.08V626.79a3.08,3.08,0,0,1,3.08-3.09h33.84a3.08,3.08,0,0,1,3.08,3.09v84.13A3.08,3.08,0,0,1,690.09,714Z" transform="translate(-562.17 -215.31)"/><polyline class="cls-2" points="111 383.13 111 403.33 111 492.19"/><path class="cls-1" d="M736.18,623.7h-34a3,3,0,0,1-3-3V607.58a3,3,0,0,1,3-3h34a3,3,0,0,1,3,3v13.13A3,3,0,0,1,736.18,623.7Z" transform="translate(-562.17 -215.31)"/><polyline class="cls-2" points="157 374.39 157 388.22 157 449.06"/><path class="cls-1" d="M782.12,639H748.21a3,3,0,0,1-3-3v-9.24a3,3,0,0,1,3-3h33.91a3.06,3.06,0,0,1,3,3V636A3.06,3.06,0,0,1,782.12,639Z" transform="translate(-562.17 -215.31)"/><polyline class="cls-2" points="203 374.39 203 386.24 203 438.39"/><path class="cls-1" d="M828.14,623.7H794.19a3,3,0,0,1-3-3v-8.62a3,3,0,0,1,3-3h33.95a3,3,0,0,1,3,3v8.62A3,3,0,0,1,828.14,623.7Z" transform="translate(-562.17 -215.31)"/><polyline class="cls-2" points="249 375.94 249 383.23 249 415.28"/><path class="cls-1" d="M874.05,609H840.29a3.12,3.12,0,0,1-3.12-3.12V551.19a3.12,3.12,0,0,1,3.12-3.12h33.76a3.12,3.12,0,0,1,3.12,3.12v54.73A3.12,3.12,0,0,1,874.05,609Z" transform="translate(-562.17 -215.31)"/><polyline class="cls-2" points="295 323.28 295 337.11 295 397.94"/><path class="cls-1" d="M920.09,578.56H886.25a3.08,3.08,0,0,1-3.08-3.09V551.16a3.08,3.08,0,0,1,3.08-3.09h33.84a3.08,3.08,0,0,1,3.08,3.09v24.31A3.08,3.08,0,0,1,920.09,578.56Z" transform="translate(-562.17 -215.31)"/><polyline class="cls-2" points="341 327.72 341 337.99 341 383.13"/><path class="cls-1" d="M966,578.56H932.34a3.18,3.18,0,0,1-3.17-3.18V559.69a3.17,3.17,0,0,1,3.17-3.17H966a3.17,3.17,0,0,1,3.18,3.17v15.69A3.18,3.18,0,0,1,966,578.56Z" transform="translate(-562.17 -215.31)"/><polyline class="cls-2" points="387 311.5 387 322.19 387 369.2"/><path class="cls-1" d="M1012.1,556.52H978.23a3.06,3.06,0,0,1-3.06-3.06V533.21a3.06,3.06,0,0,1,3.06-3.06h33.87a3.06,3.06,0,0,1,3.07,3.06v20.25A3.06,3.06,0,0,1,1012.1,556.52Z" transform="translate(-562.17 -215.31)"/><polyline class="cls-2" points="433 263.72 433 279.33 433 348"/><path class="cls-1" d="M1058,530.15h-33.69a3.15,3.15,0,0,1-3.15-3.16v-44.8a3.15,3.15,0,0,1,3.15-3.15H1058a3.16,3.16,0,0,1,3.16,3.15V527A3.16,3.16,0,0,1,1058,530.15Z" transform="translate(-562.17 -215.31)"/><polyline class="cls-2" points="479 226.09 479 243.58 479 320.5"/><path class="cls-1" d="M1104,555.67h-33.61a3.19,3.19,0,0,1-3.19-3.2V533.3a3.19,3.19,0,0,1,3.19-3.19H1104a3.19,3.19,0,0,1,3.2,3.19v19.17A3.2,3.2,0,0,1,1104,555.67Z" transform="translate(-562.17 -215.31)"/><polyline class="cls-2" points="525 253.56 525 272.43 525 355.43"/><path class="cls-1" d="M1150.12,530.15h-33.91a3,3,0,0,1-3-3v-17a3,3,0,0,1,3-3h33.91a3,3,0,0,1,3.05,3v17A3,3,0,0,1,1150.12,530.15Z" transform="translate(-562.17 -215.31)"/><polyline class="cls-2" points="571 281.8 571 290.82 571 330.54"/><path class="cls-1" d="M1196,530.15H1162.3a3.14,3.14,0,0,1-3.13-3.14V432a3.14,3.14,0,0,1,3.13-3.14H1196a3.15,3.15,0,0,1,3.14,3.14V527A3.15,3.15,0,0,1,1196,530.15Z" transform="translate(-562.17 -215.31)"/><polyline class="cls-2" points="617 213.5 617 235.18 617 330.54"/><path class="cls-1" d="M1242.05,451h-33.76a3.12,3.12,0,0,1-3.12-3.12v-16a3.12,3.12,0,0,1,3.12-3.12h33.76a3.12,3.12,0,0,1,3.12,3.12v16A3.12,3.12,0,0,1,1242.05,451Z" transform="translate(-562.17 -215.31)"/><polyline class="cls-2" points="663 203.72 663 211.21 663 244.17"/><path class="cls-1" d="M1288.14,451h-34a3,3,0,0,1-3-3v-35.5a3,3,0,0,1,3-3h34a3,3,0,0,1,3,3V448A3,3,0,0,1,1288.14,451Z" transform="translate(-562.17 -215.31)"/><polyline class="cls-2" points="709 179.72 709 191.66 709 244.17"/><path class="cls-1" d="M1334.2,482.59h-34.06a3,3,0,0,1-3-3V412.45a3,3,0,0,1,3-3h34.06a3,3,0,0,1,3,3v67.17A3,3,0,0,1,1334.2,482.59Z" transform="translate(-562.17 -215.31)"/><polyline class="cls-2" points="755 179.72 755 195.94 755 267.28"/><path class="cls-1" d="M1380.1,502.44h-33.87a3.06,3.06,0,0,1-3.06-3.06V485.62a3.06,3.06,0,0,1,3.06-3.06h33.87a3.06,3.06,0,0,1,3.07,3.06v13.76A3.06,3.06,0,0,1,1380.1,502.44Z" transform="translate(-562.17 -215.31)"/><polyline class="cls-2" points="801 252.8 801 267.2 801 330.54"/><path class="cls-1" d="M1426.14,502.44H1392.2a3,3,0,0,1-3-3V430.29a3,3,0,0,1,3-3h33.94a3,3,0,0,1,3,3v69.12A3,3,0,0,1,1426.14,502.44Z" transform="translate(-562.17 -215.31)"/><polyline class="cls-2" points="847 206.39 847 223.1 847 296.61"/><path class="cls-1" d="M1472.18,427.26h-34a3,3,0,0,1-3-3V356.69a3,3,0,0,1,3-3h34a3,3,0,0,1,3,3v67.58A3,3,0,0,1,1472.18,427.26Z" transform="translate(-562.17 -215.31)"/><polyline class="cls-2" points="893 132.83 893 154.45 893 249.54"/><path class="cls-1" d="M1518.12,353.7h-33.91a3,3,0,0,1-3-3V314.08a3,3,0,0,1,3-3h33.91a3,3,0,0,1,3.05,3v36.58A3,3,0,0,1,1518.12,353.7Z" transform="translate(-562.17 -215.31)"/><polyline class="cls-2" points="939 47.72 939 66.39 939 148.52"/><path class="cls-1" d="M1564.1,311h-33.87a3.06,3.06,0,0,1-3.06-3.07V271.43a3.06,3.06,0,0,1,3.06-3.06h33.87a3.06,3.06,0,0,1,3.07,3.06V308A3.06,3.06,0,0,1,1564.1,311Z" transform="translate(-562.17 -215.31)"/><polyline class="cls-2" points="985 1.5 985 24.22 985 124.17"/><path class="cls-1" d="M1610.09,311h-33.84a3.08,3.08,0,0,1-3.08-3.08V271.45a3.08,3.08,0,0,1,3.08-3.08h33.84a3.08,3.08,0,0,1,3.08,3.08V308A3.08,3.08,0,0,1,1610.09,311Z" transform="translate(-562.17 -215.31)"/><polyline class="cls-2" points="1031 44.17 1031 63.49 1031 148.52"/><path class="cls-1" d="M1656.14,311h-34a3,3,0,0,1-3-3V292.73a3,3,0,0,1,3-3h34a3,3,0,0,1,3,3V308A3,3,0,0,1,1656.14,311Z" transform="translate(-562.17 -215.31)"/><polyline class="cls-2" points="1077 44.17 1077 55.03 1077 102.83"/></svg>